<svg xmlns="http://www.w3.org/2000/svg" xmlns:xlink="http://www.w3.org/1999/xlink" width="500" zoomAndPan="magnify" viewBox="0 0 375 374.999991" height="500" preserveAspectRatio="xMidYMid meet" version="1.0"><defs><clipPath id="bcbce68849"><path d="M 275 136 L 366.1875 136 L 366.1875 217 L 275 217 Z M 275 136 " clip-rule="nonzero"/></clipPath><clipPath id="18da8f21e2"><path d="M 8.4375 93 L 98 93 L 98 182 L 8.4375 182 Z M 8.4375 93 " clip-rule="nonzero"/></clipPath><clipPath id="01b7ce50b3"><path d="M 135 43.804688 L 256 43.804688 L 256 89 L 135 89 Z M 135 43.804688 " clip-rule="nonzero"/></clipPath><clipPath id="838da1c7fb"><path d="M 270 262 L 328 262 L 328 331.054688 L 270 331.054688 Z M 270 262 " clip-rule="nonzero"/></clipPath></defs><path fill="#ea580c" d="M 270.824219 120.851562 C 274.292969 120.851562 277.101562 118.039062 277.101562 114.570312 C 277.101562 113.175781 276.640625 111.894531 275.871094 110.851562 L 285.5625 98.441406 C 289.121094 100.816406 293.394531 102.203125 297.996094 102.203125 C 304.25 102.203125 309.902344 99.644531 313.96875 95.519531 L 329.523438 108.699219 C 327.988281 111.007812 327.089844 113.773438 327.089844 116.75 C 327.089844 124.785156 333.601562 131.296875 341.640625 131.296875 C 349.671875 131.296875 356.1875 124.785156 356.1875 116.75 C 356.1875 108.71875 349.671875 102.203125 341.640625 102.203125 C 337.800781 102.203125 334.3125 103.691406 331.710938 106.121094 L 316.160156 92.9375 C 318.84375 89.234375 320.4375 84.6875 320.4375 79.761719 C 320.4375 67.371094 310.390625 57.320312 297.996094 57.320312 C 285.601562 57.320312 275.554688 67.371094 275.554688 79.761719 C 275.554688 86.339844 278.382812 92.253906 282.894531 96.359375 L 273.210938 108.765625 C 272.472656 108.464844 271.667969 108.292969 270.824219 108.292969 C 267.355469 108.292969 264.542969 111.105469 264.542969 114.570312 C 264.542969 118.039062 267.355469 120.851562 270.824219 120.851562 " fill-opacity="1" fill-rule="nonzero"/><path fill="#ea580c" d="M 276.097656 271.390625 L 239.148438 245.34375 C 240.269531 243.285156 240.910156 240.917969 240.910156 238.402344 C 240.910156 230.371094 234.394531 223.855469 226.359375 223.855469 C 218.324219 223.855469 211.8125 230.371094 211.8125 238.402344 C 211.8125 246.4375 218.324219 252.949219 226.359375 252.949219 C 230.664062 252.949219 234.53125 251.082031 237.195312 248.109375 L 274.152344 274.160156 C 273.921875 274.8125 273.785156 275.515625 273.785156 276.253906 C 273.785156 279.722656 276.597656 282.53125 280.066406 282.53125 C 283.53125 282.53125 286.34375 279.722656 286.34375 276.253906 C 286.34375 273.578125 284.667969 271.296875 282.308594 270.394531 L 282.839844 264.671875 C 282.96875 264.671875 283.097656 264.679688 283.226562 264.679688 C 295.621094 264.679688 305.667969 254.632812 305.667969 242.238281 C 305.667969 229.84375 295.621094 219.796875 283.226562 219.796875 C 270.832031 219.796875 260.785156 229.84375 260.785156 242.238281 C 260.785156 253.355469 268.867188 262.574219 279.472656 264.359375 L 278.941406 270.082031 C 277.875 270.273438 276.90625 270.734375 276.097656 271.390625 " fill-opacity="1" fill-rule="nonzero"/><path fill="#0097ff" d="M 249.023438 151.359375 C 249.023438 152.089844 249.152344 152.789062 249.382812 153.445312 L 237.21875 161.976562 C 234.714844 159.171875 231.144531 157.34375 227.144531 157.128906 L 225.507812 131.0625 C 232.304688 129.839844 237.460938 123.898438 237.460938 116.75 C 237.460938 108.71875 230.949219 102.203125 222.914062 102.203125 C 214.882812 102.203125 208.367188 108.71875 208.367188 116.75 C 208.367188 119.648438 209.21875 122.347656 210.679688 124.617188 L 196.175781 136.535156 C 195.15625 135.820312 193.917969 135.398438 192.582031 135.398438 C 189.113281 135.398438 186.300781 138.210938 186.300781 141.675781 C 186.300781 145.144531 189.113281 147.957031 192.582031 147.957031 C 196.046875 147.957031 198.859375 145.144531 198.859375 141.675781 C 198.859375 140.777344 198.667969 139.921875 198.324219 139.148438 L 212.828125 127.230469 C 215.269531 129.574219 218.523438 131.085938 222.128906 131.277344 L 223.765625 157.34375 C 216.96875 158.566406 211.8125 164.507812 211.8125 171.65625 C 211.8125 179.691406 218.324219 186.203125 226.359375 186.203125 C 234.394531 186.203125 240.910156 179.691406 240.910156 171.65625 C 240.910156 169.152344 240.273438 166.800781 239.164062 164.742188 L 251.324219 156.214844 C 252.40625 157.105469 253.792969 157.640625 255.300781 157.640625 C 258.769531 157.640625 261.578125 154.828125 261.578125 151.359375 C 261.578125 147.890625 258.769531 145.078125 255.300781 145.078125 C 251.835938 145.078125 249.023438 147.890625 249.023438 151.359375 " fill-opacity="1" fill-rule="nonzero"/><g clip-path="url(#bcbce68849)"><path fill="#0097ff" d="M 354.042969 146.851562 C 347.769531 146.851562 342.582031 151.511719 341.761719 157.5625 L 320.367188 157.5625 C 319.503906 145.957031 309.824219 136.8125 297.996094 136.8125 C 285.601562 136.8125 275.554688 146.859375 275.554688 159.253906 C 275.554688 171.644531 285.601562 181.691406 297.996094 181.691406 C 309.824219 181.691406 319.503906 172.546875 320.367188 160.945312 L 341.761719 160.945312 C 342.25 164.542969 344.28125 167.652344 347.171875 169.574219 L 338.359375 187.792969 C 336.867188 187.273438 335.265625 186.988281 333.59375 186.988281 C 325.554688 186.988281 319.046875 193.5 319.046875 201.535156 C 319.046875 209.570312 325.554688 216.082031 333.59375 216.082031 C 341.625 216.082031 348.140625 209.570312 348.140625 201.535156 C 348.140625 196.375 345.453125 191.847656 341.40625 189.265625 L 350.214844 171.050781 C 351.421875 171.441406 352.707031 171.65625 354.042969 171.65625 C 360.894531 171.65625 366.445312 166.101562 366.445312 159.253906 C 366.445312 152.402344 360.894531 146.851562 354.042969 146.851562 " fill-opacity="1" fill-rule="nonzero"/></g><path fill="#0097ff" d="M 107.332031 102.203125 C 109.3125 102.203125 111.234375 101.941406 113.066406 101.460938 L 129.574219 149.078125 C 127.945312 150.214844 126.875 152.097656 126.875 154.234375 C 126.875 157.703125 129.683594 160.511719 133.152344 160.511719 C 136.621094 160.511719 139.429688 157.703125 139.429688 154.234375 C 139.429688 150.769531 136.621094 147.957031 133.152344 147.957031 C 133.023438 147.957031 132.898438 147.96875 132.769531 147.976562 L 116.261719 100.351562 C 118.898438 99.207031 121.273438 97.566406 123.269531 95.554688 L 143.496094 112.769531 C 141.949219 115.085938 141.042969 117.863281 141.042969 120.851562 C 141.042969 128.882812 147.558594 135.398438 155.59375 135.398438 C 163.625 135.398438 170.140625 128.882812 170.140625 120.851562 C 170.140625 112.816406 163.625 106.304688 155.59375 106.304688 C 151.765625 106.304688 148.285156 107.785156 145.6875 110.199219 L 125.464844 92.980469 C 128.171875 89.269531 129.773438 84.703125 129.773438 79.761719 C 129.773438 67.371094 119.722656 57.320312 107.332031 57.320312 C 94.9375 57.320312 84.890625 67.371094 84.890625 79.761719 C 84.890625 92.15625 94.9375 102.203125 107.332031 102.203125 " fill-opacity="1" fill-rule="nonzero"/><path fill="#0097ff" d="M 97.449219 196.242188 C 109.839844 196.242188 119.886719 186.195312 119.886719 173.800781 C 119.886719 161.40625 109.839844 151.359375 97.449219 151.359375 C 85.054688 151.359375 75.007812 161.40625 75.007812 173.800781 C 75.007812 183.554688 81.230469 191.847656 89.921875 194.945312 L 84.851562 213.519531 C 82.925781 213.535156 81.207031 214.410156 80.066406 215.78125 L 67.308594 210.066406 C 67.742188 208.691406 67.972656 207.222656 67.972656 205.703125 C 67.972656 197.667969 61.460938 191.15625 53.425781 191.15625 C 45.390625 191.15625 38.878906 197.667969 38.878906 205.703125 C 38.878906 213.738281 45.390625 220.25 53.425781 220.25 C 58.738281 220.25 63.382812 217.40625 65.921875 213.152344 L 78.6875 218.875 C 78.644531 219.175781 78.613281 219.480469 78.613281 219.796875 C 78.613281 223.265625 81.421875 226.078125 84.890625 226.078125 C 88.359375 226.078125 91.167969 223.265625 91.167969 219.796875 C 91.167969 217.511719 89.941406 215.511719 88.113281 214.414062 L 93.1875 195.832031 C 94.566406 196.097656 95.988281 196.242188 97.449219 196.242188 " fill-opacity="1" fill-rule="nonzero"/><g clip-path="url(#18da8f21e2)"><path fill="#ea580c" d="M 53.425781 159.253906 C 53.425781 156.472656 52.917969 153.8125 51.996094 151.359375 L 86.402344 135.378906 C 87.554688 136.722656 89.261719 137.578125 91.167969 137.578125 C 94.636719 137.578125 97.449219 134.765625 97.449219 131.296875 C 97.449219 127.832031 94.636719 125.019531 91.167969 125.019531 C 89.46875 125.019531 87.925781 125.699219 86.792969 126.796875 L 64.925781 114.089844 C 65.699219 112.316406 66.128906 110.355469 66.128906 108.292969 C 66.128906 100.261719 59.617188 93.746094 51.582031 93.746094 C 43.546875 93.746094 37.035156 100.261719 37.035156 108.292969 C 37.035156 116.328125 43.546875 122.839844 51.582031 122.839844 C 56.34375 122.839844 60.570312 120.550781 63.226562 117.015625 L 85.097656 129.726562 C 84.96875 130.230469 84.890625 130.753906 84.890625 131.296875 C 84.890625 131.644531 84.925781 131.976562 84.980469 132.308594 L 50.566406 148.292969 C 46.726562 141.445312 39.398438 136.8125 30.984375 136.8125 C 18.59375 136.8125 8.546875 146.859375 8.546875 159.253906 C 8.546875 171.644531 18.59375 181.695312 30.984375 181.695312 C 43.378906 181.695312 53.425781 171.644531 53.425781 159.253906 " fill-opacity="1" fill-rule="nonzero"/></g><path fill="#ea580c" d="M 336.410156 228.144531 C 333.632812 228.144531 331.0625 229.058594 328.996094 230.601562 L 303.441406 204.652344 C 303.96875 203.734375 304.273438 202.671875 304.273438 201.535156 C 304.273438 198.070312 301.464844 195.257812 297.996094 195.257812 C 295.261719 195.257812 292.945312 197.007812 292.082031 199.445312 L 255.171875 196.976562 C 254.578125 194.128906 252.050781 191.984375 249.023438 191.984375 C 245.554688 191.984375 242.746094 194.792969 242.746094 198.265625 C 242.746094 201.730469 245.554688 204.539062 249.023438 204.539062 C 251.753906 204.539062 254.074219 202.792969 254.9375 200.351562 L 291.847656 202.820312 C 292.441406 205.671875 294.96875 207.8125 297.996094 207.8125 C 299.097656 207.8125 300.132812 207.527344 301.035156 207.03125 L 326.585938 232.980469 C 324.972656 235.074219 324.007812 237.699219 324.007812 240.546875 C 324.007812 247.398438 329.558594 252.949219 336.410156 252.949219 C 343.261719 252.949219 348.816406 247.398438 348.816406 240.546875 C 348.816406 233.695312 343.261719 228.144531 336.410156 228.144531 " fill-opacity="1" fill-rule="nonzero"/><g clip-path="url(#01b7ce50b3)"><path fill="#ea580c" d="M 147.699219 75.363281 C 153.707031 75.363281 158.71875 71.089844 159.859375 65.414062 L 178.039062 66.550781 C 178.199219 78.808594 188.179688 88.699219 200.476562 88.699219 C 212.867188 88.699219 222.914062 78.652344 222.914062 66.257812 C 222.914062 64.441406 222.691406 62.675781 222.285156 60.980469 L 243.789062 54.027344 C 244.917969 55.71875 246.839844 56.835938 249.023438 56.835938 C 252.492188 56.835938 255.300781 54.023438 255.300781 50.558594 C 255.300781 47.089844 252.492188 44.277344 249.023438 44.277344 C 245.554688 44.277344 242.746094 47.089844 242.746094 50.558594 C 242.746094 50.640625 242.753906 50.722656 242.757812 50.804688 L 221.246094 57.761719 C 217.894531 49.582031 209.859375 43.816406 200.476562 43.816406 C 189.125 43.816406 179.753906 52.242188 178.25 63.175781 L 160.066406 62.039062 C 159.59375 55.617188 154.238281 50.558594 147.699219 50.558594 C 140.851562 50.558594 135.296875 56.109375 135.296875 62.960938 C 135.296875 69.8125 140.851562 75.363281 147.699219 75.363281 " fill-opacity="1" fill-rule="nonzero"/></g><g clip-path="url(#838da1c7fb)"><path fill="#0097ff" d="M 312.542969 262.269531 C 304.511719 262.269531 297.996094 268.785156 297.996094 276.816406 C 297.996094 279.792969 298.890625 282.554688 300.421875 284.859375 L 291.511719 292.398438 C 289.316406 290.421875 286.410156 289.21875 283.226562 289.21875 C 276.375 289.21875 270.824219 294.773438 270.824219 301.625 C 270.824219 308.472656 276.375 314.03125 283.226562 314.03125 C 285.0625 314.03125 286.808594 313.625 288.375 312.910156 L 293.335938 320.734375 C 292.332031 321.847656 291.71875 323.3125 291.71875 324.929688 C 291.71875 328.398438 294.527344 331.207031 297.996094 331.207031 C 301.464844 331.207031 304.273438 328.398438 304.273438 324.929688 C 304.273438 321.460938 301.464844 318.652344 297.996094 318.652344 C 297.367188 318.652344 296.761719 318.746094 296.1875 318.917969 L 291.230469 311.09375 C 293.921875 308.820312 295.632812 305.421875 295.632812 301.625 C 295.632812 299.179688 294.921875 296.902344 293.695312 294.980469 L 302.609375 287.4375 C 305.210938 289.875 308.703125 291.367188 312.542969 291.367188 C 320.578125 291.367188 327.089844 284.855469 327.089844 276.816406 C 327.089844 268.785156 320.578125 262.269531 312.542969 262.269531 " fill-opacity="1" fill-rule="nonzero"/></g><path fill="#ea580c" d="M 178.03125 238.402344 C 173.160156 238.402344 168.847656 240.800781 166.207031 244.484375 L 153.554688 237.484375 C 154.859375 234.644531 155.59375 231.480469 155.59375 228.144531 C 155.59375 221.429688 152.640625 215.410156 147.972656 211.300781 L 158.019531 197.976562 C 161.515625 200.226562 165.671875 201.535156 170.140625 201.535156 C 182.535156 201.535156 192.582031 191.488281 192.582031 179.09375 C 192.582031 166.699219 182.535156 156.65625 170.140625 156.65625 C 157.746094 156.65625 147.699219 166.699219 147.699219 179.09375 C 147.699219 185.804688 150.648438 191.828125 155.320312 195.9375 L 145.273438 209.261719 C 141.777344 207.011719 137.617188 205.703125 133.152344 205.703125 C 120.757812 205.703125 110.710938 215.75 110.710938 228.144531 C 110.710938 240.535156 120.757812 250.585938 133.152344 250.585938 C 141 250.585938 147.90625 246.550781 151.917969 240.449219 L 164.570312 247.441406 C 163.871094 249.140625 163.484375 251 163.484375 252.949219 C 163.484375 260.984375 170 267.5 178.03125 267.5 C 186.066406 267.5 192.582031 260.984375 192.582031 252.949219 C 192.582031 244.917969 186.066406 238.402344 178.03125 238.402344 " fill-opacity="1" fill-rule="nonzero"/><path fill="#0097ff" d="M 249.023438 262.269531 C 242.777344 262.269531 237.453125 266.207031 235.394531 271.730469 L 218.082031 267.484375 C 217.972656 264.109375 215.210938 261.40625 211.8125 261.40625 C 211.71875 261.40625 211.632812 261.417969 211.539062 261.421875 L 197.554688 218.738281 C 199.234375 217.613281 200.34375 215.695312 200.34375 213.519531 C 200.34375 210.050781 197.53125 207.242188 194.0625 207.242188 C 190.597656 207.242188 187.785156 210.050781 187.785156 213.519531 C 187.785156 216.988281 190.597656 219.796875 194.0625 219.796875 C 194.15625 219.796875 194.246094 219.789062 194.339844 219.785156 L 208.320312 262.46875 C 206.644531 263.59375 205.53125 265.507812 205.53125 267.6875 C 205.53125 271.152344 208.34375 273.964844 211.8125 273.964844 C 214.160156 273.964844 216.203125 272.675781 217.277344 270.769531 L 234.589844 275.015625 C 234.515625 275.605469 234.476562 276.207031 234.476562 276.816406 C 234.476562 284.855469 240.988281 291.367188 249.023438 291.367188 C 257.058594 291.367188 263.570312 284.855469 263.570312 276.816406 C 263.570312 268.785156 257.058594 262.269531 249.023438 262.269531 " fill-opacity="1" fill-rule="nonzero"/></svg>