<svg xmlns="http://www.w3.org/2000/svg" xmlns:xlink="http://www.w3.org/1999/xlink" width="500" zoomAndPan="magnify" viewBox="0 0 375 374.999991" height="500" preserveAspectRatio="xMidYMid meet" version="1.0"><defs><g/><clipPath id="502faed4f3"><path d="M 275 106 L 366.496094 106 L 366.496094 186 L 275 186 Z M 275 106 " clip-rule="nonzero"/></clipPath><clipPath id="85ae931c48"><path d="M 8.746094 63 L 98 63 L 98 152 L 8.746094 152 Z M 8.746094 63 " clip-rule="nonzero"/></clipPath><clipPath id="cfdbb3be42"><path d="M 135 13.453125 L 256 13.453125 L 256 59 L 135 59 Z M 135 13.453125 " clip-rule="nonzero"/></clipPath><clipPath id="f6a3791ecb"><path d="M 271 231 L 328 231 L 328 300.703125 L 271 300.703125 Z M 271 231 " clip-rule="nonzero"/></clipPath></defs><path fill="#ea580c" d="M 271.128906 90.5 C 274.597656 90.5 277.410156 87.6875 277.410156 84.21875 C 277.410156 82.828125 276.949219 81.542969 276.179688 80.5 L 285.867188 68.089844 C 289.429688 70.464844 293.703125 71.851562 298.300781 71.851562 C 304.558594 71.851562 310.207031 69.292969 314.277344 65.167969 L 329.828125 78.347656 C 328.296875 80.65625 327.398438 83.421875 327.398438 86.398438 C 327.398438 94.433594 333.910156 100.945312 341.949219 100.945312 C 349.980469 100.945312 356.492188 94.433594 356.492188 86.398438 C 356.492188 78.367188 349.980469 71.851562 341.949219 71.851562 C 338.105469 71.851562 334.621094 73.339844 332.019531 75.769531 L 316.464844 62.585938 C 319.152344 58.882812 320.746094 54.335938 320.746094 49.410156 C 320.746094 37.019531 310.695312 26.96875 298.300781 26.96875 C 285.910156 26.96875 275.863281 37.019531 275.863281 49.410156 C 275.863281 55.988281 278.691406 61.902344 283.199219 66.011719 L 273.519531 78.414062 C 272.78125 78.113281 271.976562 77.945312 271.128906 77.945312 C 267.664062 77.945312 264.851562 80.753906 264.851562 84.21875 C 264.851562 87.6875 267.664062 90.5 271.128906 90.5 " fill-opacity="1" fill-rule="nonzero"/><path fill="#ea580c" d="M 276.40625 241.039062 L 239.453125 214.996094 C 240.578125 212.933594 241.214844 210.566406 241.214844 208.054688 C 241.214844 200.019531 234.703125 193.503906 226.667969 193.503906 C 218.632812 193.503906 212.121094 200.019531 212.121094 208.054688 C 212.121094 216.085938 218.632812 222.601562 226.667969 222.601562 C 230.972656 222.601562 234.839844 220.730469 237.503906 217.757812 L 274.460938 243.808594 C 274.230469 244.460938 274.09375 245.164062 274.09375 245.902344 C 274.09375 249.371094 276.90625 252.179688 280.375 252.179688 C 283.839844 252.179688 286.652344 249.371094 286.652344 245.902344 C 286.652344 243.226562 284.972656 240.945312 282.617188 240.042969 L 283.148438 234.320312 C 283.277344 234.320312 283.402344 234.328125 283.53125 234.328125 C 295.925781 234.328125 305.972656 224.28125 305.972656 211.886719 C 305.972656 199.496094 295.925781 189.445312 283.53125 189.445312 C 271.140625 189.445312 261.09375 199.496094 261.09375 211.886719 C 261.09375 223.003906 269.171875 232.222656 279.777344 234.007812 L 279.25 239.730469 C 278.183594 239.921875 277.210938 240.382812 276.40625 241.039062 " fill-opacity="1" fill-rule="nonzero"/><path fill="#0097ff" d="M 249.328125 121.011719 C 249.328125 121.738281 249.460938 122.4375 249.691406 123.09375 L 237.523438 131.625 C 235.019531 128.820312 231.453125 126.992188 227.453125 126.777344 L 225.816406 100.710938 C 232.613281 99.488281 237.769531 93.550781 237.769531 86.398438 C 237.769531 78.367188 231.257812 71.851562 223.222656 71.851562 C 215.1875 71.851562 208.671875 78.367188 208.671875 86.398438 C 208.671875 89.296875 209.527344 91.996094 210.988281 94.265625 L 196.484375 106.183594 C 195.464844 105.46875 194.226562 105.046875 192.890625 105.046875 C 189.417969 105.046875 186.609375 107.859375 186.609375 111.328125 C 186.609375 114.792969 189.417969 117.605469 192.890625 117.605469 C 196.355469 117.605469 199.164062 114.792969 199.164062 111.328125 C 199.164062 110.425781 198.972656 109.570312 198.628906 108.796875 L 213.136719 96.878906 C 215.578125 99.226562 218.832031 100.734375 222.4375 100.925781 L 224.074219 126.992188 C 217.277344 128.214844 212.121094 134.15625 212.121094 141.304688 C 212.121094 149.339844 218.632812 155.851562 226.667969 155.851562 C 234.703125 155.851562 241.214844 149.339844 241.214844 141.304688 C 241.214844 138.804688 240.582031 136.449219 239.472656 134.390625 L 251.628906 125.863281 C 252.714844 126.753906 254.101562 127.289062 255.609375 127.289062 C 259.074219 127.289062 261.886719 124.476562 261.886719 121.011719 C 261.886719 117.539062 259.074219 114.730469 255.609375 114.730469 C 252.144531 114.730469 249.328125 117.539062 249.328125 121.011719 " fill-opacity="1" fill-rule="nonzero"/><g clip-path="url(#502faed4f3)"><path fill="#0097ff" d="M 354.351562 116.5 C 348.074219 116.5 342.890625 121.160156 342.066406 127.210938 L 320.675781 127.210938 C 319.808594 115.605469 310.128906 106.460938 298.300781 106.460938 C 285.910156 106.460938 275.863281 116.507812 275.863281 128.902344 C 275.863281 141.296875 285.910156 151.34375 298.300781 151.34375 C 310.128906 151.34375 319.808594 142.195312 320.675781 130.59375 L 342.066406 130.59375 C 342.554688 134.191406 344.589844 137.300781 347.480469 139.226562 L 338.667969 157.441406 C 337.175781 156.921875 335.570312 156.636719 333.898438 156.636719 C 325.863281 156.636719 319.355469 163.148438 319.355469 171.183594 C 319.355469 179.21875 325.863281 185.734375 333.898438 185.734375 C 341.933594 185.734375 348.449219 179.21875 348.449219 171.183594 C 348.449219 166.027344 345.761719 161.496094 341.714844 158.914062 L 350.523438 140.699219 C 351.730469 141.089844 353.015625 141.304688 354.351562 141.304688 C 361.203125 141.304688 366.753906 135.75 366.753906 128.902344 C 366.753906 122.050781 361.203125 116.5 354.351562 116.5 " fill-opacity="1" fill-rule="nonzero"/></g><path fill="#0097ff" d="M 107.640625 71.851562 C 109.621094 71.851562 111.542969 71.59375 113.371094 71.109375 L 129.882812 118.726562 C 128.25 119.863281 127.179688 121.746094 127.179688 123.882812 C 127.179688 127.351562 129.992188 130.164062 133.460938 130.164062 C 136.925781 130.164062 139.738281 127.351562 139.738281 123.882812 C 139.738281 120.417969 136.925781 117.605469 133.460938 117.605469 C 133.332031 117.605469 133.207031 117.617188 133.078125 117.625 L 116.566406 70 C 119.207031 68.855469 121.582031 67.21875 123.578125 65.203125 L 143.800781 82.417969 C 142.257812 84.734375 141.351562 87.511719 141.351562 90.5 C 141.351562 98.535156 147.867188 105.046875 155.898438 105.046875 C 163.933594 105.046875 170.449219 98.535156 170.449219 90.5 C 170.449219 82.46875 163.933594 75.953125 155.898438 75.953125 C 152.074219 75.953125 148.59375 77.433594 145.996094 79.847656 L 125.769531 62.628906 C 128.476562 58.921875 130.078125 54.355469 130.078125 49.410156 C 130.078125 37.019531 120.03125 26.96875 107.640625 26.96875 C 95.246094 26.96875 85.199219 37.019531 85.199219 49.410156 C 85.199219 61.804688 95.246094 71.851562 107.640625 71.851562 " fill-opacity="1" fill-rule="nonzero"/><path fill="#0097ff" d="M 97.753906 165.890625 C 110.148438 165.890625 120.195312 155.84375 120.195312 143.449219 C 120.195312 131.054688 110.148438 121.011719 97.753906 121.011719 C 85.363281 121.011719 75.316406 131.054688 75.316406 143.449219 C 75.316406 153.203125 81.539062 161.5 90.230469 164.59375 L 85.15625 183.171875 C 83.234375 183.183594 81.515625 184.058594 80.371094 185.429688 L 67.613281 179.71875 C 68.046875 178.339844 68.28125 176.875 68.28125 175.355469 C 68.28125 167.316406 61.769531 160.804688 53.734375 160.804688 C 45.699219 160.804688 39.1875 167.316406 39.1875 175.355469 C 39.1875 183.386719 45.699219 189.898438 53.734375 189.898438 C 59.046875 189.898438 63.691406 187.054688 66.230469 182.800781 L 78.996094 188.523438 C 78.949219 188.824219 78.917969 189.132812 78.917969 189.445312 C 78.917969 192.914062 81.730469 195.726562 85.199219 195.726562 C 88.664062 195.726562 91.476562 192.914062 91.476562 189.445312 C 91.476562 187.160156 90.25 185.164062 88.421875 184.066406 L 93.492188 165.480469 C 94.875 165.746094 96.296875 165.890625 97.753906 165.890625 " fill-opacity="1" fill-rule="nonzero"/><g clip-path="url(#85ae931c48)"><path fill="#ea580c" d="M 53.734375 128.902344 C 53.734375 126.121094 53.226562 123.460938 52.304688 121.011719 L 86.710938 105.027344 C 87.859375 106.371094 89.566406 107.226562 91.476562 107.226562 C 94.945312 107.226562 97.753906 104.414062 97.753906 100.945312 C 97.753906 97.480469 94.945312 94.667969 91.476562 94.667969 C 89.773438 94.667969 88.234375 95.351562 87.101562 96.449219 L 65.234375 83.738281 C 66.003906 81.964844 66.4375 80.003906 66.4375 77.945312 C 66.4375 69.910156 59.921875 63.394531 51.890625 63.394531 C 43.855469 63.394531 37.339844 69.910156 37.339844 77.945312 C 37.339844 85.976562 43.855469 92.492188 51.890625 92.492188 C 56.652344 92.492188 60.878906 90.203125 63.53125 86.664062 L 85.40625 99.375 C 85.273438 99.878906 85.199219 100.402344 85.199219 100.945312 C 85.199219 101.292969 85.234375 101.625 85.285156 101.957031 L 50.875 117.941406 C 47.03125 111.09375 39.707031 106.460938 31.292969 106.460938 C 18.898438 106.460938 8.851562 116.507812 8.851562 128.902344 C 8.851562 141.296875 18.898438 151.34375 31.292969 151.34375 C 43.6875 151.34375 53.734375 141.296875 53.734375 128.902344 " fill-opacity="1" fill-rule="nonzero"/></g><path fill="#ea580c" d="M 336.71875 197.792969 C 333.9375 197.792969 331.367188 198.707031 329.304688 200.253906 L 303.746094 174.300781 C 304.277344 173.382812 304.582031 172.320312 304.582031 171.183594 C 304.582031 167.71875 301.769531 164.90625 298.300781 164.90625 C 295.570312 164.90625 293.25 166.65625 292.390625 169.09375 L 255.476562 166.628906 C 254.882812 163.777344 252.355469 161.632812 249.328125 161.632812 C 245.863281 161.632812 243.050781 164.445312 243.050781 167.914062 C 243.050781 171.378906 245.863281 174.1875 249.328125 174.1875 C 252.0625 174.1875 254.382812 172.441406 255.242188 170 L 292.15625 172.46875 C 292.75 175.320312 295.277344 177.464844 298.300781 177.464844 C 299.40625 177.464844 300.441406 177.179688 301.339844 176.679688 L 326.894531 202.628906 C 325.277344 204.722656 324.316406 207.347656 324.316406 210.195312 C 324.316406 217.046875 329.867188 222.601562 336.71875 222.601562 C 343.570312 222.601562 349.121094 217.046875 349.121094 210.195312 C 349.121094 203.34375 343.570312 197.792969 336.71875 197.792969 " fill-opacity="1" fill-rule="nonzero"/><g clip-path="url(#cfdbb3be42)"><path fill="#ea580c" d="M 148.007812 45.011719 C 154.015625 45.011719 159.027344 40.738281 160.167969 35.0625 L 178.347656 36.199219 C 178.503906 48.457031 188.484375 58.351562 200.78125 58.351562 C 213.175781 58.351562 223.222656 48.300781 223.222656 35.90625 C 223.222656 34.089844 223 32.324219 222.589844 30.632812 L 244.097656 23.675781 C 245.222656 25.367188 247.148438 26.484375 249.328125 26.484375 C 252.796875 26.484375 255.609375 23.675781 255.609375 20.207031 C 255.609375 16.738281 252.796875 13.925781 249.328125 13.925781 C 245.863281 13.925781 243.050781 16.738281 243.050781 20.207031 C 243.050781 20.289062 243.058594 20.371094 243.0625 20.453125 L 221.554688 27.414062 C 218.203125 19.234375 210.167969 13.464844 200.78125 13.464844 C 189.433594 13.464844 180.058594 21.890625 178.558594 32.824219 L 160.371094 31.6875 C 159.902344 25.269531 154.546875 20.207031 148.007812 20.207031 C 141.15625 20.207031 135.601562 25.757812 135.601562 32.609375 C 135.601562 39.460938 141.15625 45.011719 148.007812 45.011719 " fill-opacity="1" fill-rule="nonzero"/></g><g clip-path="url(#f6a3791ecb)"><path fill="#0097ff" d="M 312.851562 231.917969 C 304.816406 231.917969 298.300781 238.433594 298.300781 246.464844 C 298.300781 249.441406 299.195312 252.207031 300.730469 254.507812 L 291.820312 262.046875 C 289.625 260.070312 286.71875 258.871094 283.53125 258.871094 C 276.683594 258.871094 271.128906 264.425781 271.128906 271.273438 C 271.128906 278.121094 276.683594 283.679688 283.53125 283.679688 C 285.371094 283.679688 287.113281 283.273438 288.683594 282.558594 L 293.640625 290.382812 C 292.640625 291.496094 292.023438 292.964844 292.023438 294.578125 C 292.023438 298.046875 294.835938 300.855469 298.300781 300.855469 C 301.769531 300.855469 304.582031 298.046875 304.582031 294.578125 C 304.582031 291.109375 301.769531 288.300781 298.300781 288.300781 C 297.671875 288.300781 297.070312 288.394531 296.496094 288.566406 L 291.539062 280.746094 C 294.230469 278.46875 295.9375 275.070312 295.9375 271.273438 C 295.9375 268.828125 295.226562 266.550781 294.003906 264.628906 L 302.914062 257.089844 C 305.519531 259.523438 309.007812 261.015625 312.851562 261.015625 C 320.882812 261.015625 327.398438 254.503906 327.398438 246.464844 C 327.398438 238.433594 320.882812 231.917969 312.851562 231.917969 " fill-opacity="1" fill-rule="nonzero"/></g><path fill="#ea580c" d="M 178.339844 208.054688 C 173.464844 208.054688 169.15625 210.453125 166.515625 214.132812 L 153.863281 207.136719 C 155.167969 204.292969 155.898438 201.128906 155.898438 197.792969 C 155.898438 191.078125 152.949219 185.0625 148.277344 180.949219 L 158.328125 167.625 C 161.824219 169.875 165.980469 171.183594 170.449219 171.183594 C 182.839844 171.183594 192.890625 161.136719 192.890625 148.742188 C 192.890625 136.351562 182.839844 126.304688 170.449219 126.304688 C 158.054688 126.304688 148.007812 136.351562 148.007812 148.742188 C 148.007812 155.453125 150.957031 161.476562 155.628906 165.585938 L 145.578125 178.910156 C 142.082031 176.664062 137.925781 175.355469 133.460938 175.355469 C 121.066406 175.355469 111.019531 185.398438 111.019531 197.792969 C 111.019531 210.1875 121.066406 220.234375 133.460938 220.234375 C 141.308594 220.234375 148.210938 216.203125 152.222656 210.097656 L 164.875 217.089844 C 164.179688 218.789062 163.792969 220.652344 163.792969 222.601562 C 163.792969 230.636719 170.304688 237.148438 178.339844 237.148438 C 186.375 237.148438 192.890625 230.636719 192.890625 222.601562 C 192.890625 214.566406 186.375 208.054688 178.339844 208.054688 " fill-opacity="1" fill-rule="nonzero"/><path fill="#0097ff" d="M 249.328125 231.917969 C 243.085938 231.917969 237.761719 235.855469 235.699219 241.382812 L 218.390625 237.132812 C 218.277344 233.757812 215.519531 231.054688 212.121094 231.054688 C 212.027344 231.054688 211.941406 231.066406 211.847656 231.070312 L 197.863281 188.386719 C 199.542969 187.261719 200.648438 185.34375 200.648438 183.171875 C 200.648438 179.699219 197.839844 176.890625 194.371094 176.890625 C 190.90625 176.890625 188.09375 179.699219 188.09375 183.171875 C 188.09375 186.636719 190.90625 189.445312 194.371094 189.445312 C 194.464844 189.445312 194.550781 189.4375 194.644531 189.433594 L 208.628906 232.117188 C 206.949219 233.242188 205.839844 235.160156 205.839844 237.335938 C 205.839844 240.800781 208.652344 243.613281 212.121094 243.613281 C 214.464844 243.613281 216.507812 242.324219 217.585938 240.417969 L 234.898438 244.667969 C 234.824219 245.257812 234.785156 245.859375 234.785156 246.464844 C 234.785156 254.503906 241.296875 261.015625 249.328125 261.015625 C 257.367188 261.015625 263.878906 254.503906 263.878906 246.464844 C 263.878906 238.433594 257.367188 231.917969 249.328125 231.917969 " fill-opacity="1" fill-rule="nonzero"/><g fill="#ea580c" fill-opacity="1"><g transform="translate(15.377297, 358.799976)"><g><path d="M 19.777344 0.769531 C 30 0.769531 37.632812 -6.769531 37.632812 -16.800781 C 37.632812 -26.785156 30 -34.320312 19.777344 -34.320312 C 9.503906 -34.320312 1.824219 -26.734375 1.824219 -16.800781 C 1.824219 -6.816406 9.503906 0.769531 19.777344 0.769531 Z M 19.777344 -6.097656 C 13.777344 -6.097656 9.214844 -10.753906 9.214844 -16.800781 C 9.214844 -22.847656 13.777344 -27.457031 19.777344 -27.457031 C 25.777344 -27.457031 30.238281 -22.894531 30.238281 -16.800781 C 30.238281 -10.703125 25.777344 -6.097656 19.777344 -6.097656 Z M 19.777344 -6.097656 "/></g></g></g><g fill="#ea580c" fill-opacity="1"><g transform="translate(58.721222, 358.799976)"><g><path d="M 16.753906 -33.601562 L 3.839844 -33.601562 L 3.839844 0 L 11.089844 0 L 11.089844 -10.464844 L 16.753906 -10.464844 C 23.519531 -10.464844 28.609375 -15.40625 28.609375 -22.03125 C 28.609375 -28.65625 23.472656 -33.601562 16.753906 -33.601562 Z M 16.414062 -17.183594 L 11.089844 -17.183594 L 11.089844 -26.832031 L 16.414062 -26.832031 C 19.296875 -26.832031 21.265625 -24.816406 21.265625 -22.03125 C 21.265625 -19.246094 19.296875 -17.183594 16.414062 -17.183594 Z M 16.414062 -17.183594 "/></g></g></g><g fill="#ea580c" fill-opacity="1"><g transform="translate(92.417173, 358.799976)"><g><path d="M 26.976562 -33.601562 L 1.007812 -33.601562 L 1.007812 -26.832031 L 10.367188 -26.832031 L 10.367188 0 L 17.617188 0 L 17.617188 -26.832031 L 26.976562 -26.832031 Z M 26.976562 -33.601562 "/></g></g></g><g fill="#ea580c" fill-opacity="1"><g transform="translate(124.289121, 358.799976)"><g><path d="M 3.839844 0 L 11.089844 0 L 11.089844 -33.601562 L 3.839844 -33.601562 Z M 3.839844 0 "/></g></g></g><g fill="#0097ff" fill-opacity="1"><g transform="translate(143.954672, 358.799976)"><g><path d="M 44.976562 0 L 39.792969 -33.601562 L 32.496094 -33.601562 L 23.375 -12.960938 L 14.257812 -33.601562 L 7.007812 -33.601562 L 1.726562 0 L 9.121094 0 L 12.433594 -21.886719 L 22.464844 -0.046875 L 24.238281 -0.046875 L 34.273438 -21.886719 L 37.585938 0 Z M 44.976562 0 "/></g></g></g><g fill="#0097ff" fill-opacity="1"><g transform="translate(194.594586, 358.799976)"><g><path d="M 11.089844 -6.71875 L 11.089844 -13.632812 L 22.753906 -13.632812 L 22.753906 -20.207031 L 11.089844 -20.207031 L 11.089844 -26.878906 L 24 -26.878906 L 24 -33.601562 L 3.839844 -33.601562 L 3.839844 0 L 24.527344 0 L 24.527344 -6.71875 Z M 11.089844 -6.71875 "/></g></g></g><g fill="#0097ff" fill-opacity="1"><g transform="translate(225.266542, 358.799976)"><g><path d="M 25.105469 -33.601562 L 25.105469 -13.105469 L 10.367188 -33.601562 L 3.839844 -33.601562 L 3.839844 0 L 10.945312 0 L 10.945312 -20.976562 L 26.160156 0 L 32.257812 0 L 32.257812 -33.601562 Z M 25.105469 -33.601562 "/></g></g></g><g fill="#0097ff" fill-opacity="1"><g transform="translate(265.202472, 358.799976)"><g><path d="M 26.976562 -33.601562 L 1.007812 -33.601562 L 1.007812 -26.832031 L 10.367188 -26.832031 L 10.367188 0 L 17.617188 0 L 17.617188 -26.832031 L 26.976562 -26.832031 Z M 26.976562 -33.601562 "/></g></g></g><g fill="#0097ff" fill-opacity="1"><g transform="translate(297.074414, 358.799976)"><g><path d="M 26.113281 0 L 34.03125 0 L 20.449219 -33.601562 L 13.585938 -33.601562 L 0.382812 0 L 8.113281 0 L 10.414062 -6.335938 L 23.761719 -6.335938 Z M 17.089844 -24.71875 L 21.503906 -12.671875 L 12.671875 -12.671875 Z M 17.089844 -24.71875 "/></g></g></g><g fill="#0097ff" fill-opacity="1"><g transform="translate(335.378348, 358.799976)"><g><path d="M 11.089844 -6.71875 L 11.089844 -33.601562 L 3.839844 -33.601562 L 3.839844 0 L 24 0 L 24 -6.71875 Z M 11.089844 -6.71875 "/></g></g></g></svg>