<svg width="100%" height="100%" id="svg" viewBox="0 0 1440 590" xmlns="http://www.w3.org/2000/svg" class="transition duration-300 ease-in-out delay-150"><path d="M 0,600 L 0,90 C 49.022529789151776,105.78250067732802 98.04505957830355,121.56500135465603 144,118 C 189.95494042169645,114.43499864534397 232.8422914759376,91.52249525870388 271,73 C 309.1577085240624,54.477504741296116 342.5857745179461,40.34501761052842 389,48 C 435.4142254820539,55.65498238947158 494.8146104522781,85.09743429918242 538,83 C 581.1853895477219,80.90256570081758 608.1557836729418,47.26524519274187 648,45 C 687.8442163270582,42.73475480725813 740.562254855955,71.84158492985007 785,75 C 829.437745144045,78.15841507014993 865.5951969032385,55.36841508785784 906,62 C 946.4048030967615,68.63158491214216 991.0569575310908,104.6847547187185 1032,123 C 1072.9430424689092,141.3152452812815 1110.1769729723985,141.8925660372681 1161,125 C 1211.8230270276015,108.1074339627319 1276.2351505793147,73.74498113220912 1325,65 C 1373.7648494206853,56.25501886779088 1406.8824247103425,73.12750943389544 1440,90 L 1440,600 L 0,600 Z" stroke="none" stroke-width="0" fill="#002444" fill-opacity="0.265" class="transition-all duration-300 ease-in-out delay-150 path-0" transform="rotate(-180 720 300)"/><path d="M 0,600 L 0,210 C 32.58706365466719,218.98447900637308 65.17412730933438,227.96895801274619 106,221 C 146.82587269066562,214.03104198725381 195.89055441732967,191.10864695538842 248,180 C 300.10944558267033,168.89135304461158 355.2636550213469,169.59645416570012 405,171 C 454.7363449786531,172.40354583429988 499.05482549728265,174.50553638181114 537,180 C 574.9451745027174,185.49446361818886 606.5170429895223,194.38140030705537 651,188 C 695.4829570104777,181.61859969294463 752.8770025446282,159.96886238996743 793,170 C 833.1229974553718,180.03113761003257 855.9749468319644,221.74315013307503 903,229 C 950.0250531680356,236.25684986692497 1021.2232101275144,209.05853707773247 1062,197 C 1102.7767898724856,184.94146292226753 1113.132212657977,188.0227015559951 1157,195 C 1200.867787342023,201.9772984440049 1278.247939240578,212.85065669828708 1331,216 C 1383.752060759422,219.14934330171292 1411.876030379711,214.57467165085646 1440,210 L 1440,600 L 0,600 Z" stroke="none" stroke-width="0" fill="#002444" fill-opacity="0.4" class="transition-all duration-300 ease-in-out delay-150 path-1" transform="rotate(-180 720 300)"/><path d="M 0,600 L 0,330 C 43.64880940786482,347.60730203871304 87.29761881572963,365.2146040774261 123,350 C 158.70238118427037,334.7853959225739 186.45833414494638,286.74888572900863 240,285 C 293.5416658550536,283.25111427099137 372.8690446044847,327.78985300653954 416,336 C 459.1309553955153,344.21014699346046 466.0654874371147,316.0917022448333 500,308 C 533.9345125628853,299.9082977551667 594.8690056470563,311.84333801412737 642,307 C 689.1309943529437,302.15666198587263 722.45848997466,280.5349456986572 772,289 C 821.54151002534,297.4650543013428 887.2970344543039,336.01687919124373 936,355 C 984.7029655456961,373.98312080875627 1016.3533722081249,373.3975375363677 1058,374 C 1099.646627791875,374.6024624636323 1151.289476713197,376.3929706632856 1191,368 C 1230.710523286803,359.6070293367144 1258.4887209390865,341.0305798104898 1298,333 C 1337.5112790609135,324.9694201895102 1388.7556395304568,327.4847100947551 1440,330 L 1440,600 L 0,600 Z" stroke="none" stroke-width="0" fill="#002444" fill-opacity="0.53" class="transition-all duration-300 ease-in-out delay-150 path-2" transform="rotate(-180 720 300)"/><path d="M 0,600 L 0,450 C 55.59505169827824,443.4501973547906 111.19010339655648,436.90039470958124 155,442 C 198.80989660344352,447.09960529041876 230.83463811205223,463.84861851646576 271,460 C 311.16536188794777,456.15138148353424 359.4713441552347,431.70513122455594 402,436 C 444.5286558447653,440.29486877544406 481.2799852670089,473.3308565853105 520,476 C 558.7200147329911,478.6691434146895 599.4087147767298,450.9714424342018 644,438 C 688.5912852232702,425.0285575657982 737.0851556260724,426.78337367788225 780,438 C 822.9148443739276,449.21662632211775 860.2506627189808,469.8950628542691 899,471 C 937.7493372810192,472.1049371457309 977.9121934980051,453.6363749050413 1023,456 C 1068.087806501995,458.3636250949587 1118.1005632889987,481.55943752556584 1167,492 C 1215.8994367110013,502.44056247443416 1263.6855533460005,500.12587499269546 1309,491 C 1354.3144466539995,481.87412500730454 1397.1572233269999,465.93706250365227 1440,450 L 1440,600 L 0,600 Z" stroke="none" stroke-width="0" fill="#002444" fill-opacity="1" class="transition-all duration-300 ease-in-out delay-150 path-3" transform="rotate(-180 720 300)"/></svg>