<svg id="visual" viewBox="0 0 900 450" width="900" height="450" xmlns="http://www.w3.org/2000/svg" xmlns:xlink="http://www.w3.org/1999/xlink" version="1.1"><path d="M0 109L13.7 108.3C27.3 107.7 54.7 106.3 82 95.8C109.3 85.3 136.7 65.7 163.8 61.2C191 56.7 218 67.3 245.2 70.3C272.3 73.3 299.7 68.7 327 71.7C354.3 74.7 381.7 85.3 409 81.7C436.3 78 463.7 60 491 55.5C518.3 51 545.7 60 573 66C600.3 72 627.7 75 654.8 79.5C682 84 709 90 736.2 96C763.3 102 790.7 108 818 99C845.3 90 872.7 66 886.3 54L900 42L900 0L886.3 0C872.7 0 845.3 0 818 0C790.7 0 763.3 0 736.2 0C709 0 682 0 654.8 0C627.7 0 600.3 0 573 0C545.7 0 518.3 0 491 0C463.7 0 436.3 0 409 0C381.7 0 354.3 0 327 0C299.7 0 272.3 0 245.2 0C218 0 191 0 163.8 0C136.7 0 109.3 0 82 0C54.7 0 27.3 0 13.7 0L0 0Z" fill="#021d32"></path><path d="M0 145L13.7 145.8C27.3 146.7 54.7 148.3 82 141.7C109.3 135 136.7 120 163.8 113.2C191 106.3 218 107.7 245.2 115.2C272.3 122.7 299.7 136.3 327 141.7C354.3 147 381.7 144 409 135C436.3 126 463.7 111 491 108.7C518.3 106.3 545.7 116.7 573 121.2C600.3 125.7 627.7 124.3 654.8 128.8C682 133.3 709 143.7 736.2 147.3C763.3 151 790.7 148 818 134.5C845.3 121 872.7 97 886.3 85L900 73L900 40L886.3 52C872.7 64 845.3 88 818 97C790.7 106 763.3 100 736.2 94C709 88 682 82 654.8 77.5C627.7 73 600.3 70 573 64C545.7 58 518.3 49 491 53.5C463.7 58 436.3 76 409 79.7C381.7 83.3 354.3 72.7 327 69.7C299.7 66.7 272.3 71.3 245.2 68.3C218 65.3 191 54.7 163.8 59.2C136.7 63.7 109.3 83.3 82 93.8C54.7 104.3 27.3 105.7 13.7 106.3L0 107Z" fill="#002444"></path><path d="M0 195L13.7 192C27.3 189 54.7 183 82 173.2C109.3 163.3 136.7 149.7 163.8 142.2C191 134.7 218 133.3 245.2 143.2C272.3 153 299.7 174 327 179.2C354.3 184.3 381.7 173.7 409 166.8C436.3 160 463.7 157 491 161.5C518.3 166 545.7 178 573 176.5C600.3 175 627.7 160 654.8 161.5C682 163 709 181 736.2 186.3C763.3 191.7 790.7 184.3 818 172.3C845.3 160.3 872.7 143.7 886.3 135.3L900 127L900 71L886.3 83C872.7 95 845.3 119 818 132.5C790.7 146 763.3 149 736.2 145.3C709 141.7 682 131.3 654.8 126.8C627.7 122.3 600.3 123.7 573 119.2C545.7 114.7 518.3 104.3 491 106.7C463.7 109 436.3 124 409 133C381.7 142 354.3 145 327 139.7C299.7 134.3 272.3 120.7 245.2 113.2C218 105.7 191 104.3 163.8 111.2C136.7 118 109.3 133 82 139.7C54.7 146.3 27.3 144.7 13.7 143.8L0 143Z" fill="#0a487d"></path><path d="M0 312L13.7 307.5C27.3 303 54.7 294 82 277.5C109.3 261 136.7 237 163.8 227.2C191 217.3 218 221.7 245.2 230.7C272.3 239.7 299.7 253.3 327 256.3C354.3 259.3 381.7 251.7 409 252.3C436.3 253 463.7 262 491 264.3C518.3 266.7 545.7 262.3 573 260.2C600.3 258 627.7 258 654.8 268.5C682 279 709 300 736.2 315C763.3 330 790.7 339 818 334.5C845.3 330 872.7 312 886.3 303L900 294L900 125L886.3 133.3C872.7 141.7 845.3 158.3 818 170.3C790.7 182.3 763.3 189.7 736.2 184.3C709 179 682 161 654.8 159.5C627.7 158 600.3 173 573 174.5C545.7 176 518.3 164 491 159.5C463.7 155 436.3 158 409 164.8C381.7 171.7 354.3 182.3 327 177.2C299.7 172 272.3 151 245.2 141.2C218 131.3 191 132.7 163.8 140.2C136.7 147.7 109.3 161.3 82 171.2C54.7 181 27.3 187 13.7 190L0 193Z" fill="#0a487d"></path><path d="M0 334L13.7 335.5C27.3 337 54.7 340 82 328C109.3 316 136.7 289 163.8 274.8C191 260.7 218 259.3 245.2 266.2C272.3 273 299.7 288 327 297.7C354.3 307.3 381.7 311.7 409 311.7C436.3 311.7 463.7 307.3 491 303.7C518.3 300 545.7 297 573 299.2C600.3 301.3 627.7 308.7 654.8 324.3C682 340 709 364 736.2 374.5C763.3 385 790.7 382 818 377.5C845.3 373 872.7 367 886.3 364L900 361L900 292L886.3 301C872.7 310 845.3 328 818 332.5C790.7 337 763.3 328 736.2 313C709 298 682 277 654.8 266.5C627.7 256 600.3 256 573 258.2C545.7 260.3 518.3 264.7 491 262.3C463.7 260 436.3 251 409 250.3C381.7 249.7 354.3 257.3 327 254.3C299.7 251.3 272.3 237.7 245.2 228.7C218 219.7 191 215.3 163.8 225.2C136.7 235 109.3 259 82 275.5C54.7 292 27.3 301 13.7 305.5L0 310Z" fill="#002444"></path><path d="M0 451L13.7 451C27.3 451 54.7 451 82 451C109.3 451 136.7 451 163.8 451C191 451 218 451 245.2 451C272.3 451 299.7 451 327 451C354.3 451 381.7 451 409 451C436.3 451 463.7 451 491 451C518.3 451 545.7 451 573 451C600.3 451 627.7 451 654.8 451C682 451 709 451 736.2 451C763.3 451 790.7 451 818 451C845.3 451 872.7 451 886.3 451L900 451L900 359L886.3 362C872.7 365 845.3 371 818 375.5C790.7 380 763.3 383 736.2 372.5C709 362 682 338 654.8 322.3C627.7 306.7 600.3 299.3 573 297.2C545.7 295 518.3 298 491 301.7C463.7 305.3 436.3 309.7 409 309.7C381.7 309.7 354.3 305.3 327 295.7C299.7 286 272.3 271 245.2 264.2C218 257.3 191 258.7 163.8 272.8C136.7 287 109.3 314 82 326C54.7 338 27.3 335 13.7 333.5L0 332Z" fill="#021d32"></path></svg>