<?xml version="1.0" standalone="no"?><svg xmlns="http://www.w3.org/2000/svg" viewBox="0 0 1440 320"><path fill="#002444" fill-opacity="1" d="M0,64L14.1,80C28.2,96,56,128,85,165.3C112.9,203,141,245,169,229.3C197.6,213,226,139,254,138.7C282.4,139,311,213,339,213.3C367.1,213,395,139,424,128C451.8,117,480,171,508,192C536.5,213,565,203,593,213.3C621.2,224,649,256,678,234.7C705.9,213,734,139,762,101.3C790.6,64,819,64,847,64C875.3,64,904,64,932,96C960,128,988,192,1016,192C1044.7,192,1073,128,1101,117.3C1129.4,107,1158,149,1186,160C1214.1,171,1242,149,1271,154.7C1298.8,160,1327,192,1355,197.3C1383.5,203,1412,181,1426,170.7L1440,160L1440,0L1425.9,0C1411.8,0,1384,0,1355,0C1327.1,0,1299,0,1271,0C1242.4,0,1214,0,1186,0C1157.6,0,1129,0,1101,0C1072.9,0,1045,0,1016,0C988.2,0,960,0,932,0C903.5,0,875,0,847,0C818.8,0,791,0,762,0C734.1,0,706,0,678,0C649.4,0,621,0,593,0C564.7,0,536,0,508,0C480,0,452,0,424,0C395.3,0,367,0,339,0C310.6,0,282,0,254,0C225.9,0,198,0,169,0C141.2,0,113,0,85,0C56.5,0,28,0,14,0L0,0Z"></path></svg>