<svg id="visual" viewBox="0 0 900 450" width="900" height="450" xmlns="http://www.w3.org/2000/svg" xmlns:xlink="http://www.w3.org/1999/xlink" version="1.1"><rect x="0" y="0" width="900" height="450" fill="#002444"></rect><path d="M0 274L18.8 280.5C37.7 287 75.3 300 112.8 290.3C150.3 280.7 187.7 248.3 225.2 224.8C262.7 201.3 300.3 186.7 337.8 209.8C375.3 233 412.7 294 450.2 324.3C487.7 354.7 525.3 354.3 562.8 348.2C600.3 342 637.7 330 675.2 298.8C712.7 267.7 750.3 217.3 787.8 203.5C825.3 189.7 862.7 212.3 881.3 223.7L900 235" fill="none" stroke="#305999" stroke-width="40" stroke-linecap="round" stroke-linejoin="miter"></path></svg>