<?xml version="1.0" standalone="no"?><svg xmlns="http://www.w3.org/2000/svg" viewBox="0 0 1440 320"><path fill="#002444" fill-opacity="1" d="M0,288L7.1,282.7C14.1,277,28,267,42,234.7C56.5,203,71,149,85,128C98.8,107,113,117,127,128C141.2,139,155,149,169,149.3C183.5,149,198,139,212,128C225.9,117,240,107,254,138.7C268.2,171,282,245,296,256C310.6,267,325,213,339,181.3C352.9,149,367,139,381,133.3C395.3,128,409,128,424,117.3C437.6,107,452,85,466,96C480,107,494,149,508,186.7C522.4,224,536,256,551,261.3C564.7,267,579,245,593,213.3C607.1,181,621,139,635,144C649.4,149,664,203,678,202.7C691.8,203,706,149,720,112C734.1,75,748,53,762,48C776.5,43,791,53,805,74.7C818.8,96,833,128,847,122.7C861.2,117,875,75,889,64C903.5,53,918,75,932,80C945.9,85,960,75,974,74.7C988.2,75,1002,85,1016,85.3C1030.6,85,1045,75,1059,69.3C1072.9,64,1087,64,1101,101.3C1115.3,139,1129,213,1144,240C1157.6,267,1172,245,1186,202.7C1200,160,1214,96,1228,90.7C1242.4,85,1256,139,1271,176C1284.7,213,1299,235,1313,240C1327.1,245,1341,235,1355,213.3C1369.4,192,1384,160,1398,160C1411.8,160,1426,192,1433,208L1440,224L1440,0L1432.9,0C1425.9,0,1412,0,1398,0C1383.5,0,1369,0,1355,0C1341.2,0,1327,0,1313,0C1298.8,0,1285,0,1271,0C1256.5,0,1242,0,1228,0C1214.1,0,1200,0,1186,0C1171.8,0,1158,0,1144,0C1129.4,0,1115,0,1101,0C1087.1,0,1073,0,1059,0C1044.7,0,1031,0,1016,0C1002.4,0,988,0,974,0C960,0,946,0,932,0C917.6,0,904,0,889,0C875.3,0,861,0,847,0C832.9,0,819,0,805,0C790.6,0,776,0,762,0C748.2,0,734,0,720,0C705.9,0,692,0,678,0C663.5,0,649,0,635,0C621.2,0,607,0,593,0C578.8,0,565,0,551,0C536.5,0,522,0,508,0C494.1,0,480,0,466,0C451.8,0,438,0,424,0C409.4,0,395,0,381,0C367.1,0,353,0,339,0C324.7,0,311,0,296,0C282.4,0,268,0,254,0C240,0,226,0,212,0C197.6,0,184,0,169,0C155.3,0,141,0,127,0C112.9,0,99,0,85,0C70.6,0,56,0,42,0C28.2,0,14,0,7,0L0,0Z"></path></svg>